<svg xmlns="http://www.w3.org/2000/svg"><symbol id="cart" viewBox="0 0 256 256"><circle cx="66.9" cy="224.6" r="16.7" transform="rotate(-9.2 66.966 224.926)"/><circle cx="186.2" cy="224.6" r="16.7" transform="rotate(-9.2 186.411 225.154)"/><path d="M189.7 162.1a18.7 18.7 0 0 0 16.4-9.7l41.5-74a18.9 18.9 0 0 0-16.5-28.1H46.9l-3.8-21.6-14.9-6.6a11.5 11.5 0 1 0-10.7 15.6 10.4 10.4 0 0 0 4.3-.9l7 3.1 7.7 44.9h.1l13.2 76.4-6.8 20.9a15.4 15.4 0 0 0 2.2 14.1 15.6 15.6 0 0 0 12.7 6.5h141.6a5.8 5.8 0 0 0 4.9-2.8l2.8-4.6a5.7 5.7 0 0 0-5-8.6H58.3l8.1-24.6z"/></symbol><symbol id="next" viewBox="0 0 256 256"><path d="M74.4 11.7L59.6 26.5a8 8 0 0 0 0 11.3l90.2 90.2-90.2 90.2a8 8 0 0 0 0 11.3l14.8 14.8a7.9 7.9 0 0 0 11.3 0l110.7-110.6a8.1 8.1 0 0 0 0-11.4L85.7 11.7a7.9 7.9 0 0 0-11.3 0z"/></symbol><symbol id="facebook" viewBox="0 0 256 256"><path d="M250 45v166a39.1 39.1 0 0 1-39 39h-50.9v-91.1h31l4.8-37.2h-35.8V95.3c.1-9.6 7.7-14.2 14.6-14.4h22.7V48.1H165c-32.7 0-42 26.3-42 42.8v30.8H91.3v37.2H123V250H45a39.1 39.1 0 0 1-39-39V45A39.1 39.1 0 0 1 45 6h166a39.1 39.1 0 0 1 39 39z"/></symbol><symbol id="previous" viewBox="0 0 256 256"><path d="M181.6 244.3l14.8-14.8a8 8 0 0 0 0-11.3L106.2 128l90.2-90.2a8 8 0 0 0 0-11.3l-14.8-14.8a7.9 7.9 0 0 0-11.3 0L59.6 122.3a8.1 8.1 0 0 0 0 11.4l110.7 110.6a7.9 7.9 0 0 0 11.3 0z"/></symbol><symbol id="instagram" viewBox="0 0 256 256"><path d="M181.4 28.1a46.5 46.5 0 0 1 46.5 46.5v106.8a46.5 46.5 0 0 1-46.5 46.5H74.6a46.5 46.5 0 0 1-46.5-46.5V74.6a46.5 46.5 0 0 1 46.5-46.5h106.8m0-22.1H74.6A68.6 68.6 0 0 0 6 74.6v106.8A68.6 68.6 0 0 0 74.6 250h106.8a68.6 68.6 0 0 0 68.6-68.6V74.6A68.6 68.6 0 0 0 181.4 6z"/><path d="M128 87.9A40.1 40.1 0 1 1 87.9 128 40.2 40.2 0 0 1 128 87.9m0-22.1a62.2 62.2 0 1 0 62.2 62.2A62.3 62.3 0 0 0 128 65.8zm65 12c-8 0-15.1-7.4-14.8-15.4a15 15 0 0 1 15.2-14.3A14.7 14.7 0 0 1 207.8 63 15 15 0 0 1 193 77.8z"/></symbol><symbol id="profile" viewBox="0 0 256 256"><path d="M209.3 201.7a10.8 10.8 0 0 1 4.6 19.2 141.3 141.3 0 0 1-171.8 0 10.8 10.8 0 0 1 4.6-19.2c7.7-1.5 15.4-2.7 21-4 12.3-2.9 17.5-17.8 23.6-22.4a10.8 10.8 0 0 0 4.4-7.8 106.5 106.5 0 0 0 .2-11.4 11.3 11.3 0 0 0-2.7-6.9c-4.7-5.5-7.1-19.7-7.7-27.4a10.2 10.2 0 0 0-2.2-5.6c-5.4-7-11.9-30.1-7.9-34.4a10.2 10.2 0 0 0 3-7.8c-1.9-18.5.7-42.1 4-49.5S108.1 6 128 6s41.7 9.9 45.5 18.5 5.9 31 4.1 49.5a10.2 10.2 0 0 0 3 7.8c4 4.3-2.6 27.4-8 34.4a10.9 10.9 0 0 0-2.1 5.5c-.6 7.7-3 21.9-7.7 27.5a11.5 11.5 0 0 0-2.8 6.9 105.6 105.6 0 0 0 .3 11.4 10.8 10.8 0 0 0 4.4 7.8c6.1 4.6 11.3 19.5 23.6 22.4 5.6 1.3 13.3 2.5 21 4z"/></symbol><symbol id="search" viewBox="0 0 256 256"><path d="M245.9 226.4l-70.8-70.8A93.9 93.9 0 0 0 97.9 6a92.8 92.8 0 0 0-67.1 30.2c-33 35.7-33 91.6.1 127.3a93.7 93.7 0 0 0 124.6 11.6l70.8 70.9a13.9 13.9 0 0 0 9.8 4 13.8 13.8 0 0 0 9.8-4 13.9 13.9 0 0 0 4-9.8 13.8 13.8 0 0 0-4-9.8zm-96.4-76.8a70.4 70.4 0 1 1 0-99.6 70 70 0 0 1 0 99.6z"/></symbol><symbol id="twitter" viewBox="0 0 256 256"><path d="M128 81.9c-6.9-55.6 60.9-76.4 87.5-35 18.5-9.8 22.6-12.5 26.4-13.9-4.8 18.7-17.4 29.6-21.7 31.8l29.8-9.6c-10 21.3-24.3 26.9-24.3 26.9 5.5 91.8-88.2 195.3-219.7 126.4 46 2.9 70.9-19.7 70.9-19.7-27.2.7-47.6-24.6-46.9-33.7 13.8 4.2 31.8 6 39.6.7-46.4-15.3-55.5-43.9-56.2-56.9 6.8 2.7 14.2 6 23 7.3-33.1-21.8-24.1-53.6-15.6-65C54.3 84.8 128 81.9 128 81.9z"/></symbol><symbol id="close" viewBox="0 0 256 256"><path d="M244.5 218.2L154.3 128l90.2-90.2a7.9 7.9 0 0 0 0-11.3l-14.8-14.8a7.9 7.9 0 0 0-11.3 0L128 102.1 37.6 11.7a7.9 7.9 0 0 0-11.3 0L11.5 26.5a7.9 7.9 0 0 0 0 11.3l90.2 90.2-90.2 90.2a7.9 7.9 0 0 0 0 11.3l14.8 14.8a7.9 7.9 0 0 0 11.3 0l90.4-90.4 90.4 90.4a7.9 7.9 0 0 0 11.3 0l14.8-14.8a7.9 7.9 0 0 0 0-11.3z"/></symbol></svg>