<svg xmlns="http://www.w3.org/2000/svg" width="256" height="256" viewBox="0 0 256 256"><path fill="#00953b" d="M235 195.9l-101.7 58.7a10.6 10.6 0 0 1-10.6 0L21 195.9a10.8 10.8 0 0 1-5.3-9.2V69.3a10.8 10.8 0 0 1 5.3-9.2L122.7 1.4a10.6 10.6 0 0 1 10.6 0L235 60.1a10.8 10.8 0 0 1 5.3 9.2v117.4a10.8 10.8 0 0 1-5.3 9.2zm-41.4-13V73.1a10.7 10.7 0 0 0-10.7-10.7H73.1a10.7 10.7 0 0 0-10.7 10.7v109.8a10.7 10.7 0 0 0 10.7 10.7h109.8a10.7 10.7 0 0 0 10.7-10.7z"/><path fill="#666766" d="M142.2 169.8l30.6-53a16.4 16.4 0 0 0-14.2-24.6H97.4a16.4 16.4 0 0 0-14.2 24.6l30.6 53a16.3 16.3 0 0 0 28.4 0z"/></svg>