<svg id="Layer_1" data-name="Layer 1" xmlns="http://www.w3.org/2000/svg" width="441.2" height="107.7" viewBox="0 0 441.2 107.7"><title>paypal</title><g id="_Group_" data-name="&lt;Group&gt;"><g id="_Group_2" data-name="&lt;Group&gt;"><path id="_Compound_Path_" data-name="&lt;Compound Path&gt;" d="M167.8,47c-1.3,8.7-8,8.7-14.5,8.7h-3.7l2.6-16.3a2,2,0,0,1,2-1.8h1.7c4.4,0,8.6,0,10.7,2.6S168.3,43.9,167.8,47ZM165,24.1H140.6a3.4,3.4,0,0,0-3.4,2.9l-9.9,62.6a2,2,0,0,0,2,2.3H141a3.4,3.4,0,0,0,3.4-2.9L147,72.2a3.4,3.4,0,0,1,3.4-2.9h7.7c16.1,0,25.4-7.8,27.8-23.2,1.1-6.8,0-12.1-3.1-15.8S173.1,24.1,165,24.1Z" fill="#253b80"/><path id="_Compound_Path_2" data-name="&lt;Compound Path&gt;" d="M221.7,69.4a13.2,13.2,0,0,1-13.2,11.2c-3.4,0-6.1-1.1-7.9-3.2a9.7,9.7,0,0,1-1.8-8.2A13,13,0,0,1,211.9,58a9.3,9.3,0,0,1,9.8,11.4ZM238,46.7H226.3a2,2,0,0,0-2,1.7l-.6,3.3-.8-1.2c-2.5-3.7-8.2-4.9-13.8-4.9-12.9,0-23.9,9.8-26.1,23.5-1.1,6.8.5,13.4,4.4,18S196,93,202.1,93a22.5,22.5,0,0,0,16.2-6.7l-.5,3.3a2,2,0,0,0,2,2.3h10.5a3.3,3.3,0,0,0,3.3-2.9L240,49A2,2,0,0,0,238,46.7Z" fill="#253b80"/><path id="_Path_" data-name="&lt;Path&gt;" d="M300.2,46.7H288.5a3.2,3.2,0,0,0-2.8,1.5L269.5,72l-6.9-22.9a3.5,3.5,0,0,0-3.3-2.4H247.8a2,2,0,0,0-1.9,2.7l12.9,37.9-12.2,17.2a2,2,0,0,0,1.7,3.2H260a3.4,3.4,0,0,0,2.8-1.4l39.1-56.4A2,2,0,0,0,300.2,46.7Z" fill="#253b80"/><path id="_Compound_Path_3" data-name="&lt;Compound Path&gt;" d="M341.9,47c-1.3,8.7-8,8.7-14.5,8.7h-3.6l2.6-16.3a2,2,0,0,1,2-1.8H330c4.5,0,8.6,0,10.8,2.6S342.4,43.9,341.9,47Zm-2.8-22.9H314.7a3.3,3.3,0,0,0-3.3,2.9l-9.9,62.6a2,2,0,0,0,2,2.3H316a2.4,2.4,0,0,0,2.4-2l2.8-17.7a3.3,3.3,0,0,1,3.3-2.9h7.7c16.1,0,25.4-7.8,27.8-23.2,1.1-6.8.1-12.1-3.1-15.8S347.3,24.1,339.1,24.1Z" fill="#179bd7"/><path id="_Compound_Path_4" data-name="&lt;Compound Path&gt;" d="M395.8,69.4a13,13,0,0,1-13.2,11.2c-3.4,0-6.1-1.1-7.8-3.2s-2.4-4.9-1.9-8.2A13.1,13.1,0,0,1,386,58c3.4,0,6.1,1.1,7.8,3.2A10,10,0,0,1,395.8,69.4Zm16.3-22.7H400.4a2,2,0,0,0-2,1.7l-.5,3.3-.8-1.2c-2.6-3.7-8.2-4.9-13.8-4.9-12.9,0-24,9.8-26.1,23.5-1.1,6.8.4,13.4,4.3,18s8.7,5.9,14.8,5.9a22.1,22.1,0,0,0,16.1-6.7l-.5,3.3a2,2,0,0,0,2,2.3h10.6a3.4,3.4,0,0,0,3.3-2.9l6.3-40A2,2,0,0,0,412.1,46.7Z" fill="#179bd7"/><path id="_Path_2" data-name="&lt;Path&gt;" d="M425.9,25.8l-10,63.8a2,2,0,0,0,2,2.3H428a3.4,3.4,0,0,0,3.3-2.9l9.9-62.6a2,2,0,0,0-2-2.3H427.9A2,2,0,0,0,425.9,25.8Z" fill="#179bd7"/><path id="_Path_3" data-name="&lt;Path&gt;" d="M25.9,104.1l1.9-11.9H3.8L17.6,4.6a1,1,0,0,1,.4-.7l.7-.2H52.2C63.3,3.7,71,6,75,10.5a14.9,14.9,0,0,1,3.6,6.9,22.5,22.5,0,0,1,.1,9.4v2.7l1.9,1.1a12.7,12.7,0,0,1,3.8,2.9,12.9,12.9,0,0,1,3.1,6.9,31.5,31.5,0,0,1-.4,10,35.6,35.6,0,0,1-4.2,11.4,22.2,22.2,0,0,1-6.5,7.1,26.3,26.3,0,0,1-8.8,4,45.2,45.2,0,0,1-10.9,1.3H54A7.8,7.8,0,0,0,48.9,76a8.3,8.3,0,0,0-2.7,4.8l-.2,1-3.3,20.9v.8c-.1.3-.1.4-.2.5H25.9Z" fill="#253b80"/><path id="_Path_4" data-name="&lt;Path&gt;" d="M82.3,27.4a12.9,12.9,0,0,1-.4,1.9C77.5,52,62.4,59.8,43.1,59.8H33.3a4.7,4.7,0,0,0-4.7,4.1L23.5,95.8l-1.4,9a2.5,2.5,0,0,0,2.5,2.9H42a4.3,4.3,0,0,0,4.2-3.5v-.9l3.3-20.8.2-1.1A4.3,4.3,0,0,1,54,77.8h2.6c16.9,0,30.1-6.8,33.9-26.7,1.7-8.3.8-15.2-3.4-20.1A17.8,17.8,0,0,0,82.3,27.4Z" fill="#179bd7"/><path id="_Path_5" data-name="&lt;Path&gt;" d="M77.7,25.5,75.6,25l-2.2-.4a47.9,47.9,0,0,0-8.7-.7H38.5a3.5,3.5,0,0,0-1.8.5,3.9,3.9,0,0,0-2.4,3.1L28.7,62.9v1a4.7,4.7,0,0,1,4.7-4.1h9.8c19.3,0,34.4-7.8,38.8-30.5a12.9,12.9,0,0,0,.4-1.9,30,30,0,0,0-3.6-1.6Z" fill="#222d65"/><path id="_Path_6" data-name="&lt;Path&gt;" d="M34.3,27.5a3.9,3.9,0,0,1,2.4-3.1,3.5,3.5,0,0,1,1.8-.5H64.7a59,59,0,0,1,8.7.7l2.2.4,2.1.5,1,.3a30,30,0,0,1,3.6,1.6c1.3-8.4,0-14.1-4.6-19.3S63.7,0,52.2,0H18.7A4.7,4.7,0,0,0,14,4L0,92.5a2.9,2.9,0,0,0,2.9,3.3H23.5l5.2-32.9Z" fill="#253b80"/></g></g></svg>